<svg xmlns="http://www.w3.org/2000/svg" width="22.986" height="18.938" viewBox="0 0 22.986 18.938">
  <g id="_1814094_camera_images_photograph_photography_picture_icon" data-name="1814094_camera_images_photograph_photography_picture_icon" transform="translate(0.05 0.05)">
    <g id="Icon-Camera">
      <path id="Fill-21_1_" d="M-148.886-498.762h-18.79a2.036,2.036,0,0,1-2.024-2.023v-12.093a2.036,2.036,0,0,1,2.024-2.024h4.047a.662.662,0,0,0,.385-.241l.723-1.494a1.952,1.952,0,0,1,1.59-.964h5.348a1.952,1.952,0,0,1,1.59.964l.723,1.494a.542.542,0,0,0,.385.241h4.047a2.036,2.036,0,0,1,2.024,2.024v12.093a2.111,2.111,0,0,1-2.072,2.023Zm-18.79-14.743a.659.659,0,0,0-.675.675v12.093a.659.659,0,0,0,.675.674h18.79a.659.659,0,0,0,.675-.674V-512.83a.659.659,0,0,0-.675-.675h-4.047a1.952,1.952,0,0,1-1.59-.964l-.723-1.494a.542.542,0,0,0-.385-.241h-5.348a.662.662,0,0,0-.385.241l-.723,1.494a1.952,1.952,0,0,1-1.59.964Z" transform="translate(169.7 517.6)" fill="#fff" stroke="#fff" stroke-width="0.1"/>
      <path id="Fill-22_1_" d="M-152.477-497.055a6.025,6.025,0,0,1-6.023-6.023,6.025,6.025,0,0,1,6.023-6.023,6.025,6.025,0,0,1,6.023,6.023,6.025,6.025,0,0,1-6.023,6.023Zm0-10.744a4.729,4.729,0,0,0-4.722,4.722,4.729,4.729,0,0,0,4.722,4.722,4.729,4.729,0,0,0,4.722-4.722,4.729,4.729,0,0,0-4.722-4.722Z" transform="translate(163.896 513.195)" fill="#fff" stroke="#fff" stroke-width="0.1"/>
      <path id="Fill-23_1_" d="M-132.151-507.125a.659.659,0,0,1-.675.675.659.659,0,0,1-.674-.675.659.659,0,0,1,.674-.674.689.689,0,0,1,.675.674" transform="translate(150.941 512.522)" fill="#fff" stroke="#fff" stroke-width="0.1"/>
      <path id="Fill-24_1_" d="M-164.1-514.7h2.7v.674h-2.7Z" transform="translate(166.798 516.097)" fill="#fff" stroke="#fff" stroke-width="0.1"/>
      <path id="Fill-25_1_" d="M-149.627-502.926v-.675A3.382,3.382,0,0,0-153-500.227h.675a2.694,2.694,0,0,1,2.7-2.7" transform="translate(161.046 510.345)" fill="#fff" stroke="#fff" stroke-width="0.1"/>
    </g>
  </g>
</svg>
