<svg id="_2530841_document_general_letter_note_office_icon" data-name="2530841_document_general_letter_note_office_icon" xmlns="http://www.w3.org/2000/svg" width="16.297" height="20.099" viewBox="0 0 16.297 20.099">
  <g id="Group_232" data-name="Group 232">
    <path id="Path_279" data-name="Path 279" d="M34.757,6.1V2.568H25.324v18.77H38.512a1.781,1.781,0,0,0,1.775-1.775V7.87H36.531A1.779,1.779,0,0,1,34.757,6.1Z" transform="translate(-24.659 -1.904)" fill="none"/>
    <path id="Path_280" data-name="Path 280" d="M36.662,20.154H23.475a.664.664,0,0,1-.665-.664V.719a.664.664,0,0,1,.665-.664h9.433a.664.664,0,0,1,.664.664V4.248a1.111,1.111,0,0,0,1.11,1.11h3.756a.664.664,0,0,1,.665.664V17.715A2.442,2.442,0,0,1,36.662,20.154ZM24.139,18.825H36.662a1.112,1.112,0,0,0,1.111-1.111V6.686H34.682a2.442,2.442,0,0,1-2.439-2.439V1.384h-8.1Z" transform="translate(-22.81 -0.055)" fill="#fff"/>
  </g>
  <path id="Path_281" data-name="Path 281" d="M45.277,38.011h-7.52a.664.664,0,1,1,0-1.329h7.52a.664.664,0,1,1,0,1.329Z" transform="translate(-33.316 -26.997)" fill="#fff"/>
  <path id="Path_282" data-name="Path 282" d="M40.012,49.553H37.758a.664.664,0,0,1,0-1.329h2.254a.664.664,0,0,1,0,1.329Z" transform="translate(-33.317 -35.487)" fill="#fff"/>
  <path id="Path_283" data-name="Path 283" d="M57.226,49.553H56.3a.664.664,0,0,1,0-1.329h.925a.664.664,0,1,1,0,1.329Z" transform="translate(-46.956 -35.487)" fill="#fff"/>
  <g id="Group_233" data-name="Group 233" transform="translate(9.433 0.001)">
    <path id="Path_284" data-name="Path 284" d="M62.774,7.872A1.779,1.779,0,0,1,61,6.1V2.57l5.529,5.3H62.774Z" transform="translate(-60.335 -1.906)" fill="#fff"/>
    <path id="Path_285" data-name="Path 285" d="M64.685,6.688h-3.76A2.442,2.442,0,0,1,58.486,4.25V.722A.664.664,0,0,1,59.61.242L65.092,5.5a.664.664,0,0,1-.407,1.19Zm-4.87-4.409V4.25a1.111,1.111,0,0,0,1.11,1.109h2.1Z" transform="translate(-58.486 -0.057)" fill="#fff"/>
  </g>
</svg>
