<svg xmlns="http://www.w3.org/2000/svg" xmlns:xlink="http://www.w3.org/1999/xlink" width="159.911" height="142.51" viewBox="0 0 159.911 142.51">
  <defs>
    <clipPath id="clip-path">
      <rect id="Rectangle_285" data-name="Rectangle 285" width="159.911" height="142.51" fill="none" stroke="#bcbcbc" stroke-width="1"/>
    </clipPath>
  </defs>
  <g id="Group_4122" data-name="Group 4122" transform="translate(-107.545 -251.49)">
    <g id="Group_4039" data-name="Group 4039" transform="translate(107.545 251.49)">
      <g id="Group_328" data-name="Group 328" clip-path="url(#clip-path)">
        <path id="Path_327" data-name="Path 327" d="M238.028,23.755,248.1,38.717l-12.5-4.739Z" transform="translate(-107.697 -10.859)" fill="none" stroke="#bcbcbc" stroke-miterlimit="10" stroke-width="0.25"/>
        <path id="Path_328" data-name="Path 328" d="M258.358,51.612l9.431,9.5L263.262,62Z" transform="translate(-118.102 -23.593)" fill="none" stroke="#bcbcbc" stroke-miterlimit="10" stroke-width="0.25"/>
        <path id="Path_329" data-name="Path 329" d="M260.049,66.24l-8.721-2.83,1.373-2.526Z" transform="translate(-114.889 -27.832)" fill="none" stroke="#bcbcbc" stroke-miterlimit="10" stroke-width="0.25"/>
        <path id="Path_330" data-name="Path 330" d="M243.922,58.144l-11.8-3.254,10.426,5.78Z" transform="translate(-106.109 -25.092)" fill="none" stroke="#bcbcbc" stroke-miterlimit="10" stroke-width="0.25"/>
        <path id="Path_331" data-name="Path 331" d="M232.122,49.4l1.743-6.518,10.057,9.772Z" transform="translate(-106.109 -19.603)" fill="none" stroke="#bcbcbc" stroke-miterlimit="10" stroke-width="0.25"/>
        <path id="Path_332" data-name="Path 332" d="M245.389,52.656l2.443-5.034-12.5-4.738Z" transform="translate(-107.576 -19.603)" fill="none" stroke="#bcbcbc" stroke-miterlimit="10" stroke-width="0.25"/>
        <path id="Path_333" data-name="Path 333" d="M251.328,65.537l3.005,9.283,4.6.332,1.116-6.785Z" transform="translate(-114.889 -29.959)" fill="none" stroke="#bcbcbc" stroke-miterlimit="10" stroke-width="0.25"/>
        <path id="Path_334" data-name="Path 334" d="M254.333,74.82,251.4,76.83l-.074-11.293Z" transform="translate(-114.889 -29.959)" fill="none" stroke="#bcbcbc" stroke-miterlimit="10" stroke-width="0.25"/>
        <path id="Path_335" data-name="Path 335" d="M256.864,82.637l2.125,4.833,1.293-.078,1.182-4.423Z" transform="translate(-117.419 -37.776)" fill="none" stroke="#bcbcbc" stroke-miterlimit="10" stroke-width="0.25"/>
        <path id="Path_336" data-name="Path 336" d="M260.778,91.474l2.132,6.206,2.491-.456-3.33-5.828Z" transform="translate(-119.209 -41.779)" fill="none" stroke="#bcbcbc" stroke-miterlimit="10" stroke-width="0.25"/>
        <path id="Path_337" data-name="Path 337" d="M264.7,102.588l6.854,4.775-4.363-5.231Z" transform="translate(-121.004 -46.687)" fill="none" stroke="#bcbcbc" stroke-miterlimit="10" stroke-width="0.25"/>
        <path id="Path_338" data-name="Path 338" d="M271.559,107.747,269.9,110.6l-5.195-7.624Z" transform="translate(-121.004 -47.072)" fill="none" stroke="#bcbcbc" stroke-miterlimit="10" stroke-width="0.25"/>
        <path id="Path_339" data-name="Path 339" d="M274.274,114.617l3.6.163-1.938-3.012Z" transform="translate(-125.378 -51.092)" fill="none" stroke="#bcbcbc" stroke-miterlimit="10" stroke-width="0.25"/>
        <path id="Path_340" data-name="Path 340" d="M220.084,48.622l-14.3-.355,8.654-7.089,7.385.926Z" transform="translate(-94.071 -18.823)" fill="none" stroke="#bcbcbc" stroke-miterlimit="10" stroke-width="0.25"/>
        <path id="Path_341" data-name="Path 341" d="M221.729,33.213l9.961-9.458L229.114,34.14Z" transform="translate(-101.359 -10.859)" fill="none" stroke="#bcbcbc" stroke-miterlimit="10" stroke-width="0.25"/>
        <path id="Path_342" data-name="Path 342" d="M211.7,33.213l-11.906-5,7.721-3.6,14.146-.857Z" transform="translate(-91.333 -10.859)" fill="none" stroke="#bcbcbc" stroke-miterlimit="10" stroke-width="0.25"/>
        <path id="Path_343" data-name="Path 343" d="M199.8,31.961l3.252,12.092,8.654-7.089Z" transform="translate(-91.333 -14.61)" fill="none" stroke="#bcbcbc" stroke-miterlimit="10" stroke-width="0.25"/>
        <path id="Path_344" data-name="Path 344" d="M157.528,50.069l5.355-13.658,17.592-4.45Z" transform="translate(-72.01 -14.61)" fill="none" stroke="#bcbcbc" stroke-miterlimit="10" stroke-width="0.25"/>
        <path id="Path_345" data-name="Path 345" d="M167.392,33.741l18.265-7.621-.673,3.17Z" transform="translate(-76.52 -11.94)" fill="none" stroke="#bcbcbc" stroke-miterlimit="10" stroke-width="0.25"/>
        <path id="Path_346" data-name="Path 346" d="M200.471,25.738l7.5-.455L199.8,28.908Z" transform="translate(-91.333 -11.557)" fill="none" stroke="#bcbcbc" stroke-miterlimit="10" stroke-width="0.25"/>
        <path id="Path_347" data-name="Path 347" d="M247.718,81.809,243.27,76.43l4.415.35Z" transform="translate(-111.206 -34.938)" fill="none" stroke="#bcbcbc" stroke-miterlimit="10" stroke-width="0.25"/>
        <path id="Path_348" data-name="Path 348" d="M235.083,66.583l-9.723-5.924,3.671-5.77Z" transform="translate(-103.018 -25.091)" fill="none" stroke="#bcbcbc" stroke-miterlimit="10" stroke-width="0.25"/>
        <path id="Path_349" data-name="Path 349" d="M232.122,54.89l7.174,8.369,3.253-2.589Z" transform="translate(-106.109 -25.092)" fill="none" stroke="#bcbcbc" stroke-miterlimit="10" stroke-width="0.25"/>
        <path id="Path_350" data-name="Path 350" d="M245.336,68.126,248.63,71.8l-.041-6.263Z" transform="translate(-112.15 -29.959)" fill="none" stroke="#bcbcbc" stroke-miterlimit="10" stroke-width="0.25"/>
        <path id="Path_351" data-name="Path 351" d="M238.174,66.583l-6.052-11.694,10.467,12.044Z" transform="translate(-106.109 -25.091)" fill="none" stroke="#bcbcbc" stroke-miterlimit="10" stroke-width="0.25"/>
        <path id="Path_352" data-name="Path 352" d="M216.414,60.36l-10.625-6.124,14.3.355Z" transform="translate(-94.072 -24.793)" fill="none" stroke="#bcbcbc" stroke-miterlimit="10" stroke-width="0.25"/>
        <path id="Path_353" data-name="Path 353" d="M200.3,54.236s-6.789,5.959-6.506,5.585,17.131.539,17.131.539Z" transform="translate(-88.585 -24.793)" fill="none" stroke="#bcbcbc" stroke-miterlimit="10" stroke-width="0.25"/>
        <path id="Path_354" data-name="Path 354" d="M193.8,62.158c.51-.389,11.321-2.81,11.321-2.81l5.811,3.349Z" transform="translate(-88.593 -27.13)" fill="none" stroke="#bcbcbc" stroke-miterlimit="10" stroke-width="0.25"/>
        <path id="Path_355" data-name="Path 355" d="M189.462,64.524l-5.156,3.926,7.733-1.712Z" transform="translate(-84.251 -29.496)" fill="none" stroke="#bcbcbc" stroke-miterlimit="10" stroke-width="0.25"/>
        <path id="Path_356" data-name="Path 356" d="M196.38,66.737l14.554-1.674L193.8,64.524Z" transform="translate(-88.593 -29.496)" fill="none" stroke="#bcbcbc" stroke-miterlimit="10" stroke-width="0.25"/>
        <path id="Path_357" data-name="Path 357" d="M184.306,53.564l8.411-21.6,3.252,12.092Z" transform="translate(-84.251 -14.61)" fill="none" stroke="#bcbcbc" stroke-miterlimit="10" stroke-width="0.25"/>
        <path id="Path_358" data-name="Path 358" d="M157.528,50.069l14.537,3.5,8.41-21.6Z" transform="translate(-72.01 -14.61)" fill="none" stroke="#bcbcbc" stroke-miterlimit="10" stroke-width="0.25"/>
        <path id="Path_359" data-name="Path 359" d="M167.966,68.811l-19.4,4.357,4.867-7.852Z" transform="translate(-67.912 -29.858)" fill="none" stroke="#bcbcbc" stroke-miterlimit="10" stroke-width="0.25"/>
        <path id="Path_360" data-name="Path 360" d="M141.692,70.362l-8.158-11.184,13.026,3.332Z" transform="translate(-61.042 -27.052)" fill="none" stroke="#bcbcbc" stroke-miterlimit="10" stroke-width="0.25"/>
        <path id="Path_361" data-name="Path 361" d="M167.966,71.755,154.95,85.8l-6.389-9.689Z" transform="translate(-67.912 -32.801)" fill="none" stroke="#bcbcbc" stroke-miterlimit="10" stroke-width="0.25"/>
        <path id="Path_362" data-name="Path 362" d="M160.329,85.8l20.161-4.886-7.145-9.159Z" transform="translate(-73.291 -32.801)" fill="none" stroke="#bcbcbc" stroke-miterlimit="10" stroke-width="0.25"/>
        <path id="Path_363" data-name="Path 363" d="M191.451,80.915l3.964-7.645-11.109-1.515Z" transform="translate(-84.251 -32.801)" fill="none" stroke="#bcbcbc" stroke-miterlimit="10" stroke-width="0.25"/>
        <path id="Path_364" data-name="Path 364" d="M195.415,71.828,192.039,68.6l-7.733,1.712Z" transform="translate(-84.251 -31.359)" fill="none" stroke="#bcbcbc" stroke-miterlimit="10" stroke-width="0.25"/>
        <path id="Path_365" data-name="Path 365" d="M201.927,70.419l11.178-4.9L198.55,67.191Z" transform="translate(-90.763 -29.95)" fill="none" stroke="#bcbcbc" stroke-miterlimit="10" stroke-width="0.25"/>
        <path id="Path_366" data-name="Path 366" d="M201.431,74.545l7.3,3.374L197.467,82.19Z" transform="translate(-90.268 -34.077)" fill="none" stroke="#bcbcbc" stroke-miterlimit="10" stroke-width="0.25"/>
        <path id="Path_367" data-name="Path 367" d="M212.073,73.793l13.1-2.651-9.229-5.624-11.178,4.9Z" transform="translate(-93.606 -29.95)" fill="none" stroke="#bcbcbc" stroke-miterlimit="10" stroke-width="0.25"/>
        <path id="Path_368" data-name="Path 368" d="M218.223,78.528l7.057,4.343,6.048-6.994Z" transform="translate(-99.756 -34.686)" fill="none" stroke="#bcbcbc" stroke-miterlimit="10" stroke-width="0.25"/>
        <path id="Path_369" data-name="Path 369" d="M231.222,86.171l1.392,4.076,1.268-7.151Z" transform="translate(-105.698 -37.985)" fill="none" stroke="#bcbcbc" stroke-miterlimit="10" stroke-width="0.25"/>
        <path id="Path_370" data-name="Path 370" d="M236.121,79.8l8.329,1.761-4.941-5.679Z" transform="translate(-107.937 -34.686)" fill="none" stroke="#bcbcbc" stroke-miterlimit="10" stroke-width="0.25"/>
        <path id="Path_371" data-name="Path 371" d="M251.464,84.647,253.612,94.9l2.908-7.428L254.4,82.637Z" transform="translate(-114.951 -37.776)" fill="none" stroke="#bcbcbc" stroke-miterlimit="10" stroke-width="0.25"/>
        <path id="Path_372" data-name="Path 372" d="M255.42,98.967l5.04-1.221-2.132-6.207Z" transform="translate(-116.76 -41.845)" fill="none" stroke="#bcbcbc" stroke-miterlimit="10" stroke-width="0.25"/>
        <path id="Path_373" data-name="Path 373" d="M255.42,104.194l8.03,6.536,2.205-.134-5.195-7.624Z" transform="translate(-116.76 -47.071)" fill="none" stroke="#bcbcbc" stroke-miterlimit="10" stroke-width="0.25"/>
        <path id="Path_374" data-name="Path 374" d="M263.449,111.758l-4.937,2.284-3.092-8.82Z" transform="translate(-116.759 -48.1)" fill="none" stroke="#bcbcbc" stroke-miterlimit="10" stroke-width="0.25"/>
        <path id="Path_375" data-name="Path 375" d="M236.121,83.1,246.6,95.107,244.45,84.856Z" transform="translate(-107.937 -37.985)" fill="none" stroke="#bcbcbc" stroke-miterlimit="10" stroke-width="0.25"/>
        <path id="Path_376" data-name="Path 376" d="M233.786,90.247l7.128-.432L235.054,83.1Z" transform="translate(-106.87 -37.985)" fill="none" stroke="#bcbcbc" stroke-miterlimit="10" stroke-width="0.25"/>
        <path id="Path_377" data-name="Path 377" d="M254.205,105.222l-1.443,13.98,4.535-5.16Z" transform="translate(-115.545 -48.1)" fill="none" stroke="#bcbcbc" stroke-miterlimit="10" stroke-width="0.25"/>
        <path id="Path_378" data-name="Path 378" d="M246.917,95.473l3.956,11.684.66-6.392Z" transform="translate(-112.872 -43.643)" fill="none" stroke="#bcbcbc" stroke-miterlimit="10" stroke-width="0.25"/>
        <path id="Path_379" data-name="Path 379" d="M250.09,114.746l-3.174-19.273,3.957,11.684Z" transform="translate(-112.872 -43.643)" fill="none" stroke="#bcbcbc" stroke-miterlimit="10" stroke-width="0.25"/>
        <path id="Path_380" data-name="Path 380" d="M233.786,95.9l2.618,5.414,4.51-5.846Z" transform="translate(-106.87 -43.643)" fill="none" stroke="#bcbcbc" stroke-miterlimit="10" stroke-width="0.25"/>
        <path id="Path_381" data-name="Path 381" d="M229.942,99.752l-6.566,3.108,1.41,3.12Z" transform="translate(-102.112 -45.599)" fill="none" stroke="#bcbcbc" stroke-miterlimit="10" stroke-width="0.25"/>
        <path id="Path_382" data-name="Path 382" d="M232.833,103.275l-6.859,2.706,5.155-6.228Z" transform="translate(-103.299 -45.599)" fill="none" stroke="#bcbcbc" stroke-miterlimit="10" stroke-width="0.25"/>
        <path id="Path_383" data-name="Path 383" d="M238.609,101.319l3.591,1.309.92-7.155Z" transform="translate(-109.075 -43.643)" fill="none" stroke="#bcbcbc" stroke-miterlimit="10" stroke-width="0.25"/>
        <path id="Path_384" data-name="Path 384" d="M245.223,102.628l3.136,6.305-2.217-13.46Z" transform="translate(-112.098 -43.643)" fill="none" stroke="#bcbcbc" stroke-miterlimit="10" stroke-width="0.25"/>
        <path id="Path_385" data-name="Path 385" d="M252.674,132.128l4.762-7.693-.18-2.966-4.534,5.161Z" transform="translate(-115.504 -55.527)" fill="none" stroke="#bcbcbc" stroke-miterlimit="10" stroke-width="0.25"/>
        <path id="Path_386" data-name="Path 386" d="M261.446,122.512l9.088-.551-4.331-4.7Z" transform="translate(-119.514 -53.603)" fill="none" stroke="#bcbcbc" stroke-miterlimit="10" stroke-width="0.25"/>
        <path id="Path_387" data-name="Path 387" d="M261.115,119.546l.18,2.966,4.758-5.25Z" transform="translate(-119.363 -53.604)" fill="none" stroke="#bcbcbc" stroke-miterlimit="10" stroke-width="0.25"/>
        <path id="Path_388" data-name="Path 388" d="M274.541,121.961l5.434-1.016-9.765-3.683Z" transform="translate(-123.521 -53.604)" fill="none" stroke="#bcbcbc" stroke-miterlimit="10" stroke-width="0.25"/>
        <path id="Path_389" data-name="Path 389" d="M276.014,117.292l3.962,3.653-9.765-3.683Z" transform="translate(-123.521 -53.604)" fill="none" stroke="#bcbcbc" stroke-miterlimit="10" stroke-width="0.25"/>
        <path id="Path_390" data-name="Path 390" d="M285.254,124.046l3.314,4.3-6.81-.274Z" transform="translate(-128.799 -56.705)" fill="none" stroke="#bcbcbc" stroke-miterlimit="10" stroke-width="0.25"/>
        <path id="Path_391" data-name="Path 391" d="M272.473,128.074l-11.027-2.461,9.089-.551,5.434-1.016Z" transform="translate(-119.514 -56.705)" fill="none" stroke="#bcbcbc" stroke-miterlimit="10" stroke-width="0.25"/>
        <path id="Path_392" data-name="Path 392" d="M272.369,129.394l-11.15,4.95.123-7.412Z" transform="translate(-119.41 -58.024)" fill="none" stroke="#bcbcbc" stroke-miterlimit="10" stroke-width="0.25"/>
        <path id="Path_393" data-name="Path 393" d="M257.313,134.344l-4.639.281,4.762-7.693Z" transform="translate(-115.504 -58.024)" fill="none" stroke="#bcbcbc" stroke-miterlimit="10" stroke-width="0.25"/>
        <path id="Path_394" data-name="Path 394" d="M261.219,136.417l2.51,2.367,8.64-7.317Z" transform="translate(-119.41 -60.097)" fill="none" stroke="#bcbcbc" stroke-miterlimit="10" stroke-width="0.25"/>
        <path id="Path_395" data-name="Path 395" d="M277.234,131.467l.67,4.768-6.043-.218Z" transform="translate(-124.275 -60.097)" fill="none" stroke="#bcbcbc" stroke-miterlimit="10" stroke-width="0.25"/>
        <path id="Path_396" data-name="Path 396" d="M282.429,136.235l3.374.254,2.766-4.747-6.81-.274Z" transform="translate(-128.799 -60.097)" fill="none" stroke="#bcbcbc" stroke-miterlimit="10" stroke-width="0.25"/>
        <path id="Path_397" data-name="Path 397" d="M289.208,136.72l.161,2.662,2.6-7.409Z" transform="translate(-132.205 -60.328)" fill="none" stroke="#bcbcbc" stroke-miterlimit="10" stroke-width="0.25"/>
        <path id="Path_398" data-name="Path 398" d="M286.179,140.5l-3.6,2.356.224-2.609Z" transform="translate(-129.176 -64.112)" fill="none" stroke="#bcbcbc" stroke-miterlimit="10" stroke-width="0.25"/>
        <path id="Path_399" data-name="Path 399" d="M282.582,143.072l3.759.307-.161-2.662Z" transform="translate(-129.176 -64.326)" fill="none" stroke="#bcbcbc" stroke-miterlimit="10" stroke-width="0.25"/>
        <path id="Path_400" data-name="Path 400" d="M275.487,145.056l-8.425,1.427,5.021,1.6Z" transform="translate(-122.082 -66.309)" fill="none" stroke="#bcbcbc" stroke-miterlimit="10" stroke-width="0.25"/>
        <path id="Path_401" data-name="Path 401" d="M276.311,148.086l4.51.109,2.652-2.833-3.759-.307Z" transform="translate(-126.309 -66.309)" fill="none" stroke="#bcbcbc" stroke-miterlimit="10" stroke-width="0.25"/>
        <path id="Path_402" data-name="Path 402" d="M263.114,147.684l-4.689,1.658,6.006.552,3.7-.606Z" transform="translate(-118.133 -67.51)" fill="none" stroke="#bcbcbc" stroke-miterlimit="10" stroke-width="0.25"/>
        <path id="Path_403" data-name="Path 403" d="M259.764,142.952l.663,1.486-7.882-1.049.071-2.523,4.639-.281Z" transform="translate(-115.445 -64.265)" fill="none" stroke="#bcbcbc" stroke-miterlimit="10" stroke-width="0.25"/>
        <path id="Path_404" data-name="Path 404" d="M252.544,145.751l3.193,2.707,4.689-1.658Z" transform="translate(-115.445 -66.627)" fill="none" stroke="#bcbcbc" stroke-miterlimit="10" stroke-width="0.25"/>
        <path id="Path_405" data-name="Path 405" d="M263.159,87.671l7.066.717-5.884-5.139Z" transform="translate(-120.297 -38.055)" fill="none" stroke="#bcbcbc" stroke-miterlimit="10" stroke-width="0.25"/>
        <path id="Path_406" data-name="Path 406" d="M265.337,77.535l4.2-2.532-3.082-4.253Z" transform="translate(-121.293 -32.342)" fill="none" stroke="#bcbcbc" stroke-miterlimit="10" stroke-width="0.25"/>
        <path id="Path_407" data-name="Path 407" d="M269.535,78.585l2.227,4.636-.541,3.036-5.884-5.139Z" transform="translate(-121.293 -35.923)" fill="none" stroke="#bcbcbc" stroke-miterlimit="10" stroke-width="0.25"/>
        <path id="Path_408" data-name="Path 408" d="M271.918,69.12l.783,9.773-2.227-4.635L267.392,70Z" transform="translate(-122.232 -31.597)" fill="none" stroke="#bcbcbc" stroke-miterlimit="10" stroke-width="0.25"/>
        <path id="Path_409" data-name="Path 409" d="M270.226,92.112l-.752,2.068L263.159,91.4Z" transform="translate(-120.297 -41.779)" fill="none" stroke="#bcbcbc" stroke-miterlimit="10" stroke-width="0.25"/>
        <path id="Path_410" data-name="Path 410" d="M269.473,94.181l-4.564.277L263.159,91.4Z" transform="translate(-120.297 -41.779)" fill="none" stroke="#bcbcbc" stroke-miterlimit="10" stroke-width="0.25"/>
        <path id="Path_411" data-name="Path 411" d="M270.946,96.526l2.3,3.277-5.889-1.762-.973-1.238Z" transform="translate(-121.77 -44.124)" fill="none" stroke="#bcbcbc" stroke-miterlimit="10" stroke-width="0.25"/>
        <path id="Path_412" data-name="Path 412" d="M274.063,101.078l-1.174,4.556-4.107-4.789-.608-1.528Z" transform="translate(-122.59 -45.401)" fill="none" stroke="#bcbcbc" stroke-miterlimit="10" stroke-width="0.25"/>
        <path id="Path_413" data-name="Path 413" d="M276.311,150.638l2.151,5.9,2.825,1.89-.685-2.478-.616-3.855Z" transform="translate(-126.309 -68.861)" fill="none" stroke="#bcbcbc" stroke-miterlimit="10" stroke-width="0.25"/>
        <path id="Path_414" data-name="Path 414" d="M279.987,152.095l.834-1.348-4.51-.108Z" transform="translate(-126.31 -68.861)" fill="none" stroke="#bcbcbc" stroke-miterlimit="10" stroke-width="0.25"/>
        <path id="Path_415" data-name="Path 415" d="M268.119,151.244l-1.627,10.938,7.482-5.644-2.151-5.9Z" transform="translate(-121.821 -68.861)" fill="none" stroke="#bcbcbc" stroke-miterlimit="10" stroke-width="0.25"/>
        <path id="Path_416" data-name="Path 416" d="M251.02,150.738l-8.794,8.242,14.8-7.69Z" transform="translate(-110.728 -68.907)" fill="none" stroke="#bcbcbc" stroke-miterlimit="10" stroke-width="0.25"/>
        <path id="Path_417" data-name="Path 417" d="M242.226,159.445l13.173,3.247,1.627-10.938Z" transform="translate(-110.728 -69.371)" fill="none" stroke="#bcbcbc" stroke-miterlimit="10" stroke-width="0.25"/>
        <path id="Path_418" data-name="Path 418" d="M240.906,165.921l-1.567,11.926,14.741-8.679Z" transform="translate(-109.408 -75.847)" fill="none" stroke="#bcbcbc" stroke-miterlimit="10" stroke-width="0.25"/>
        <path id="Path_419" data-name="Path 419" d="M239.339,183.8l4.848,2.073,3.413-6.936Z" transform="translate(-109.408 -81.795)" fill="none" stroke="#bcbcbc" stroke-miterlimit="10" stroke-width="0.25"/>
        <path id="Path_420" data-name="Path 420" d="M249.538,184.468c.056-.113,6.748-3.63,6.748-3.63l-4.025-1.905Z" transform="translate(-114.071 -81.795)" fill="none" stroke="#bcbcbc" stroke-miterlimit="10" stroke-width="0.25"/>
        <path id="Path_421" data-name="Path 421" d="M258.579,178.966l-.25-4.128-3.775,2.223Z" transform="translate(-116.364 -79.923)" fill="none" stroke="#bcbcbc" stroke-miterlimit="10" stroke-width="0.25"/>
        <path id="Path_422" data-name="Path 422" d="M261.508,168.744l4.492.169,5.7-7.406Z" transform="translate(-119.542 -73.829)" fill="none" stroke="#bcbcbc" stroke-miterlimit="10" stroke-width="0.25"/>
        <path id="Path_423" data-name="Path 423" d="M261.758,178.966l2.179-2.727-2.429-1.4Z" transform="translate(-119.542 -79.923)" fill="none" stroke="#bcbcbc" stroke-miterlimit="10" stroke-width="0.25"/>
        <path id="Path_424" data-name="Path 424" d="M264.147,177.418l2.194.936-4.373,1.791Z" transform="translate(-119.753 -81.103)" fill="none" stroke="#bcbcbc" stroke-miterlimit="10" stroke-width="0.25"/>
        <path id="Path_425" data-name="Path 425" d="M266.564,177.19l-.131-2.168-3.978-.149,1.915,1.381Z" transform="translate(-119.975 -79.939)" fill="none" stroke="#bcbcbc" stroke-miterlimit="10" stroke-width="0.25"/>
        <path id="Path_426" data-name="Path 426" d="M269.913,171.08l5.208-1.6.356-7.975-5.7,7.406Z" transform="translate(-123.325 -73.829)" fill="none" stroke="#bcbcbc" stroke-miterlimit="10" stroke-width="0.25"/>
        <path id="Path_427" data-name="Path 427" d="M279.618,169.481l2.211,1.836-1.854-9.811Z" transform="translate(-127.821 -73.829)" fill="none" stroke="#bcbcbc" stroke-miterlimit="10" stroke-width="0.25"/>
        <path id="Path_428" data-name="Path 428" d="M282.129,171.317l.97-7.921-2.824-1.89Z" transform="translate(-128.121 -73.829)" fill="none" stroke="#bcbcbc" stroke-miterlimit="10" stroke-width="0.25"/>
        <path id="Path_429" data-name="Path 429" d="M285.477,164.987l1.8,4.45-1.137,6.426Z" transform="translate(-130.499 -75.42)" fill="none" stroke="#bcbcbc" stroke-miterlimit="10" stroke-width="0.25"/>
        <path id="Path_430" data-name="Path 430" d="M283.69,172.909l1.629,2.955-.659-10.876Z" transform="translate(-129.682 -75.42)" fill="none" stroke="#bcbcbc" stroke-miterlimit="10" stroke-width="0.25"/>
        <path id="Path_431" data-name="Path 431" d="M284,182.533l-3.194.194,1.565-3.149Z" transform="translate(-128.365 -82.09)" fill="none" stroke="#bcbcbc" stroke-miterlimit="10" stroke-width="0.25"/>
        <path id="Path_432" data-name="Path 432" d="M280.264,181.181l-.645-4.984,2.211,1.836Z" transform="translate(-127.821 -80.544)" fill="none" stroke="#bcbcbc" stroke-miterlimit="10" stroke-width="0.25"/>
        <path id="Path_433" data-name="Path 433" d="M280.807,185.214l2.615,2.208.58-2.4Z" transform="translate(-128.365 -84.578)" fill="none" stroke="#bcbcbc" stroke-miterlimit="10" stroke-width="0.25"/>
        <path id="Path_434" data-name="Path 434" d="M251.918,186.133l6.432.431-10.082,2.6.689-1.4Z" transform="translate(-113.49 -85.087)" fill="none" stroke="#bcbcbc" stroke-miterlimit="10" stroke-width="0.25"/>
        <path id="Path_435" data-name="Path 435" d="M260.309,186.927l2.162,2.922-9.917-.926Z" transform="translate(-115.449 -85.45)" fill="none" stroke="#bcbcbc" stroke-miterlimit="10" stroke-width="0.25"/>
        <path id="Path_436" data-name="Path 436" d="M248.269,191.2s6.979,2.249,6.984,2.019a47,47,0,0,0-4.657-2.618Z" transform="translate(-113.491 -87.131)" fill="none" stroke="#bcbcbc" stroke-miterlimit="10" stroke-width="0.25"/>
        <path id="Path_437" data-name="Path 437" d="M257.212,193.224l5.26-1.693-9.917-.926Z" transform="translate(-115.45 -87.131)" fill="none" stroke="#bcbcbc" stroke-miterlimit="10" stroke-width="0.25"/>
        <path id="Path_438" data-name="Path 438" d="M266.393,192.31l3.857,1.6.156,2.586L261.133,194Z" transform="translate(-119.371 -87.91)" fill="none" stroke="#bcbcbc" stroke-miterlimit="10" stroke-width="0.25"/>
        <path id="Path_439" data-name="Path 439" d="M266.757,186.469l2.676-.544,2,.887,1.341,4.178-3.857-1.6S266.1,186.6,266.757,186.469Z" transform="translate(-121.897 -84.991)" fill="none" stroke="#bcbcbc" stroke-miterlimit="10" stroke-width="0.25"/>
        <path id="Path_440" data-name="Path 440" d="M275.456,187.558a26.685,26.685,0,0,1,3.112,2.239l-1.772,1.939Z" transform="translate(-125.918 -85.738)" fill="none" stroke="#bcbcbc" stroke-miterlimit="10" stroke-width="0.25"/>
        <path id="Path_441" data-name="Path 441" d="M276.883,188.8l-.207-3.422-4.906.3,2,.887Z" transform="translate(-124.233 -84.741)" fill="none" stroke="#bcbcbc" stroke-miterlimit="10" stroke-width="0.25"/>
        <path id="Path_442" data-name="Path 442" d="M281.015,188.8l3.581,1.157-1.174-2.371-2.614-2.208Z" transform="translate(-128.365 -84.741)" fill="none" stroke="#bcbcbc" stroke-miterlimit="10" stroke-width="0.25"/>
        <path id="Path_443" data-name="Path 443" d="M283.279,192.839l-1.433,3.751-3.764-.383-.157-2.586,1.772-1.939Z" transform="translate(-127.047 -87.623)" fill="none" stroke="#bcbcbc" stroke-miterlimit="10" stroke-width="0.25"/>
        <path id="Path_444" data-name="Path 444" d="M268.289,196.6l-.225.372-2.082,3.432-6.727-1.424-10.985-7.273,16.256,4.511" transform="translate(-113.491 -87.635)" fill="none" stroke="#bcbcbc" stroke-miterlimit="10" stroke-width="0.25"/>
        <path id="Path_445" data-name="Path 445" d="M270.1,206.53l3.835,7.859L257.29,215.4c.07,0,6.088-10.292,6.088-10.292Z" transform="translate(-117.614 -93.76)" fill="none" stroke="#bcbcbc" stroke-miterlimit="10" stroke-width="0.25"/>
        <path id="Path_446" data-name="Path 446" d="M253.166,209.274l-4.9-17.565,10.985,7.273Z" transform="translate(-113.491 -87.635)" fill="none" stroke="#bcbcbc" stroke-miterlimit="10" stroke-width="0.25"/>
        <path id="Path_447" data-name="Path 447" d="M212.207,105.359l-16.35-6.967,14.94,3.846Z" transform="translate(-89.531 -44.978)" fill="none" stroke="#bcbcbc" stroke-miterlimit="10" stroke-width="0.25"/>
        <path id="Path_448" data-name="Path 448" d="M187.539,93.24l-9.876-2.588,12.908-3.53s-4.953,3.812-4.639,3.945A14.093,14.093,0,0,1,187.539,93.24Z" transform="translate(-81.215 -39.825)" fill="none" stroke="#bcbcbc" stroke-miterlimit="10" stroke-width="0.25"/>
        <path id="Path_449" data-name="Path 449" d="M160.329,95.8s21.537,9,20.959,8.271-11.549-10.444-11.549-10.444Z" transform="translate(-73.291 -42.798)" fill="none" stroke="#bcbcbc" stroke-miterlimit="10" stroke-width="0.25"/>
        <path id="Path_450" data-name="Path 450" d="M189.212,104.068l14.678-.89-16.35-6.967-9.876-2.588Z" transform="translate(-81.215 -42.798)" fill="none" stroke="#bcbcbc" stroke-miterlimit="10" stroke-width="0.25"/>
        <path id="Path_451" data-name="Path 451" d="M225.975,108.947,236.71,117.3l-.286-9.753-3.591-1.309Z" transform="translate(-103.299 -48.566)" fill="none" stroke="#bcbcbc" stroke-miterlimit="10" stroke-width="0.25"/>
        <path id="Path_452" data-name="Path 452" d="M245.509,118.406l3.759,7.864.137-6.367-1.21-5.934-2.973-5.316Z" transform="translate(-112.098 -49.668)" fill="none" stroke="#bcbcbc" stroke-miterlimit="10" stroke-width="0.25"/>
        <path id="Path_453" data-name="Path 453" d="M247.827,145.751l-5.6,10.95,8.794-8.242Z" transform="translate(-110.728 -66.627)" fill="none" stroke="#bcbcbc" stroke-miterlimit="10" stroke-width="0.25"/>
        <path id="Path_454" data-name="Path 454" d="M242.952,137.005l-11.391-4.271,7.7-6.115,3.759,7.864Z" transform="translate(-105.853 -57.881)" fill="none" stroke="#bcbcbc" stroke-miterlimit="10" stroke-width="0.25"/>
        <path id="Path_455" data-name="Path 455" d="M229.008,125.7l-3.032-14.472,10.735,8.356Z" transform="translate(-103.299 -50.844)" fill="none" stroke="#bcbcbc" stroke-miterlimit="10" stroke-width="0.25"/>
        <path id="Path_456" data-name="Path 456" d="M216.647,125.7l-11.425-4.956-6.286-8.626,14.679-.889Z" transform="translate(-90.939 -50.844)" fill="none" stroke="#bcbcbc" stroke-miterlimit="10" stroke-width="0.25"/>
        <path id="Path_457" data-name="Path 457" d="M187.574,114.525l-27.245-16.9,20.959,8.272Z" transform="translate(-73.291 -44.628)" fill="none" stroke="#bcbcbc" stroke-miterlimit="10" stroke-width="0.25"/>
        <path id="Path_458" data-name="Path 458" d="M210.515,128.754l11.762,10.508,11.055-1.281Z" transform="translate(-96.232 -58.857)" fill="none" stroke="#bcbcbc" stroke-miterlimit="10" stroke-width="0.25"/>
        <path id="Path_459" data-name="Path 459" d="M219.926,139.262l-14.554,7.027,2.792-17.535Z" transform="translate(-93.881 -58.857)" fill="none" stroke="#bcbcbc" stroke-miterlimit="10" stroke-width="0.25"/>
        <path id="Path_460" data-name="Path 460" d="M189.8,143.776l-18.5-20.519,21.287,2.985Z" transform="translate(-78.307 -56.344)" fill="none" stroke="#bcbcbc" stroke-miterlimit="10" stroke-width="0.25"/>
        <path id="Path_461" data-name="Path 461" d="M166.287,111.54,160.33,97.627l27.245,16.9Z" transform="translate(-73.291 -44.628)" fill="none" stroke="#bcbcbc" stroke-miterlimit="10" stroke-width="0.25"/>
        <path id="Path_462" data-name="Path 462" d="M205.372,155.137l14.231,3.908.322-10.935Z" transform="translate(-93.881 -67.705)" fill="none" stroke="#bcbcbc" stroke-miterlimit="10" stroke-width="0.25"/>
        <path id="Path_463" data-name="Path 463" d="M231.587,157.967l5.776-1.266,5.6-10.95-11.055,1.281Z" transform="translate(-105.865 -66.627)" fill="none" stroke="#bcbcbc" stroke-miterlimit="10" stroke-width="0.25"/>
        <path id="Path_464" data-name="Path 464" d="M192.9,88.158l13.966-3.823,6.841.769-7.057-4.344-10.066,3.511Z" transform="translate(-88.178 -36.918)" fill="none" stroke="#bcbcbc" stroke-miterlimit="10" stroke-width="0.25"/>
        <path id="Path_465" data-name="Path 465" d="M257.29,223.215l5.542,7.6,10.18-.617.928-7.995Z" transform="translate(-117.614 -101.576)" fill="none" stroke="#bcbcbc" stroke-miterlimit="10" stroke-width="0.25"/>
        <path id="Path_466" data-name="Path 466" d="M271.222,236.933l-11.4,7.255-6.45,1.154,7.668-7.792Z" transform="translate(-115.824 -108.308)" fill="none" stroke="#bcbcbc" stroke-miterlimit="10" stroke-width="0.25"/>
        <path id="Path_467" data-name="Path 467" d="M245.406,231.667l-26.237,1.59,20.695-9.193Z" transform="translate(-100.188 -102.426)" fill="none" stroke="#bcbcbc" stroke-miterlimit="10" stroke-width="0.25"/>
        <path id="Path_468" data-name="Path 468" d="M234.693,207.528l-26.836-11.961,17.091-7.677,4.848,2.073Z" transform="translate(-95.017 -85.89)" fill="none" stroke="#bcbcbc" stroke-miterlimit="10" stroke-width="0.25"/>
        <path id="Path_469" data-name="Path 469" d="M214,223.186l-6.142-21.154,26.837,11.961Z" transform="translate(-95.016 -92.354)" fill="none" stroke="#bcbcbc" stroke-miterlimit="10" stroke-width="0.25"/>
        <path id="Path_470" data-name="Path 470" d="M219.169,239.659l19.108,2.506,7.129-4.1Z" transform="translate(-100.188 -108.828)" fill="none" stroke="#bcbcbc" stroke-miterlimit="10" stroke-width="0.25"/>
        <path id="Path_471" data-name="Path 471" d="M206.721,183.3l-1.348-22.246,11.6,11.93Z" transform="translate(-93.881 -73.622)" fill="none" stroke="#bcbcbc" stroke-miterlimit="10" stroke-width="0.25"/>
        <path id="Path_472" data-name="Path 472" d="M218.108,183.03l6.839,2.639-17.091,7.677Z" transform="translate(-95.017 -83.668)" fill="none" stroke="#bcbcbc" stroke-miterlimit="10" stroke-width="0.25"/>
        <path id="Path_473" data-name="Path 473" d="M219.6,164.963l-2.631,8.022-11.6-11.93Z" transform="translate(-93.881 -73.622)" fill="none" stroke="#bcbcbc" stroke-miterlimit="10" stroke-width="0.25"/>
        <path id="Path_474" data-name="Path 474" d="M229.372,167.188l5.776-1.266-1.567,11.926-6.839-2.638Z" transform="translate(-103.65 -75.847)" fill="none" stroke="#bcbcbc" stroke-miterlimit="10" stroke-width="0.25"/>
        <path id="Path_475" data-name="Path 475" d="M189.349,183.13s-22.443-22.685-21.971-22.446,20.623.2,20.623.2Z" transform="translate(-76.51 -73.452)" fill="none" stroke="#bcbcbc" stroke-miterlimit="10" stroke-width="0.25"/>
        <path id="Path_476" data-name="Path 476" d="M159.689,123.256l-11.452,8.785-2.341,13Z" transform="translate(-66.693 -56.344)" fill="none" stroke="#bcbcbc" stroke-miterlimit="10" stroke-width="0.25"/>
        <path id="Path_477" data-name="Path 477" d="M157.562,143.575l2.128-20.319L145.9,145.045Z" transform="translate(-66.693 -56.344)" fill="none" stroke="#bcbcbc" stroke-miterlimit="10" stroke-width="0.25"/>
        <path id="Path_478" data-name="Path 478" d="M167.385,160.685l4.321,15.876,17.65,6.57Z" transform="translate(-76.516 -73.453)" fill="none" stroke="#bcbcbc" stroke-miterlimit="10" stroke-width="0.25"/>
        <path id="Path_479" data-name="Path 479" d="M151.517,97.627l-10.466,17.5,16.423-3.591Z" transform="translate(-64.478 -44.628)" fill="none" stroke="#bcbcbc" stroke-miterlimit="10" stroke-width="0.25"/>
        <path id="Path_480" data-name="Path 480" d="M193.879,202.032l-16.6,10.777,15.757,6.831Z" transform="translate(-81.04 -92.354)" fill="none" stroke="#bcbcbc" stroke-miterlimit="10" stroke-width="0.25"/>
        <path id="Path_481" data-name="Path 481" d="M206.306,219.64l6.983,3.546-6.142-21.154Z" transform="translate(-94.308 -92.354)" fill="none" stroke="#bcbcbc" stroke-miterlimit="10" stroke-width="0.25"/>
        <path id="Path_482" data-name="Path 482" d="M214.255,241.141s-7.492,4-7.112,3.982,7.859.9,8.5.859,17.134-2.412,17.134-2.412Z" transform="translate(-94.684 -110.232)" fill="none" stroke="#bcbcbc" stroke-miterlimit="10" stroke-width="0.25"/>
        <path id="Path_483" data-name="Path 483" d="M253.913,242.165l-.539,3.7,7.668-7.792Z" transform="translate(-115.824 -108.828)" fill="none" stroke="#bcbcbc" stroke-miterlimit="10" stroke-width="0.25"/>
        <path id="Path_484" data-name="Path 484" d="M239.4,249.311l-16.595-1.284,17.134-2.412Z" transform="translate(-101.851 -112.277)" fill="none" stroke="#bcbcbc" stroke-miterlimit="10" stroke-width="0.25"/>
        <path id="Path_485" data-name="Path 485" d="M218.533,250.058l-5.074,3.972,21.668-2.687Z" transform="translate(-97.578 -114.308)" fill="none" stroke="#bcbcbc" stroke-miterlimit="10" stroke-width="0.25"/>
        <path id="Path_486" data-name="Path 486" d="M207.155,248.476l3.422,4.831,5.074-3.971Z" transform="translate(-94.696 -113.585)" fill="none" stroke="#bcbcbc" stroke-miterlimit="10" stroke-width="0.25"/>
        <path id="Path_487" data-name="Path 487" d="M193.5,236.319l-16.218-14.437,15.757,6.831,6.983,3.547Z" transform="translate(-81.04 -101.429)" fill="none" stroke="#bcbcbc" stroke-miterlimit="10" stroke-width="0.25"/>
        <path id="Path_488" data-name="Path 488" d="M185.9,236.319l-25.243-2.134,9.025-12.3Z" transform="translate(-73.44 -101.429)" fill="none" stroke="#bcbcbc" stroke-miterlimit="10" stroke-width="0.25"/>
        <path id="Path_489" data-name="Path 489" d="M166.025,207.276l-13.367-8.961,12.316-8.386,17.649,6.57Z" transform="translate(-69.784 -86.822)" fill="none" stroke="#bcbcbc" stroke-miterlimit="10" stroke-width="0.25"/>
        <path id="Path_490" data-name="Path 490" d="M152.658,205.377,157,226.64l9.025-12.3Z" transform="translate(-69.784 -93.884)" fill="none" stroke="#bcbcbc" stroke-miterlimit="10" stroke-width="0.25"/>
        <path id="Path_491" data-name="Path 491" d="M158.2,160.685l-10.9,14.057,2.909,10.2,12.316-8.386Z" transform="translate(-67.335 -73.453)" fill="none" stroke="#bcbcbc" stroke-miterlimit="10" stroke-width="0.25"/>
        <path id="Path_492" data-name="Path 492" d="M136.617,163.393l-11.019,2.08L137.38,175.98Z" transform="translate(-57.415 -74.692)" fill="none" stroke="#bcbcbc" stroke-miterlimit="10" stroke-width="0.25"/>
        <path id="Path_493" data-name="Path 493" d="M145.9,162.155l11.666-1.47-10.9,14.057Z" transform="translate(-66.693 -73.454)" fill="none" stroke="#bcbcbc" stroke-miterlimit="10" stroke-width="0.25"/>
        <path id="Path_494" data-name="Path 494" d="M139.362,44.853,127.755,33.445l14.521,4.069Z" transform="translate(-58.4 -15.289)" fill="none" stroke="#bcbcbc" stroke-miterlimit="10" stroke-width="0.25"/>
        <path id="Path_495" data-name="Path 495" d="M81.32,44.825l1.91-8.78,5.978,4.587Z" transform="translate(-37.174 -16.477)" fill="none" stroke="#bcbcbc" stroke-miterlimit="10" stroke-width="0.25"/>
        <path id="Path_496" data-name="Path 496" d="M112.2,23.545l-.221-3.651,2.645,1.672Z" transform="translate(-51.191 -9.094)" fill="none" stroke="#bcbcbc" stroke-miterlimit="10" stroke-width="0.25"/>
        <path id="Path_497" data-name="Path 497" d="M55.036,29.945,33.139,21.3,45.566,31.537Z" transform="translate(-15.149 -9.736)" fill="none" stroke="#bcbcbc" stroke-miterlimit="10" stroke-width="0.25"/>
        <path id="Path_498" data-name="Path 498" d="M107.543,94.314l.068-15.665,15.354,11.085Z" transform="translate(-49.161 -35.953)" fill="none" stroke="#bcbcbc" stroke-miterlimit="10" stroke-width="0.25"/>
        <path id="Path_499" data-name="Path 499" d="M122.555,112.868l1.636-4.908,1.862,3.857Z" transform="translate(-56.023 -49.351)" fill="none" stroke="#bcbcbc" stroke-miterlimit="10" stroke-width="0.25"/>
        <path id="Path_500" data-name="Path 500" d="M80.649,144.832l8.2-9.122,4.982,8.323Z" transform="translate(-36.867 -62.036)" fill="none" stroke="#bcbcbc" stroke-miterlimit="10" stroke-width="0.25"/>
        <path id="Path_501" data-name="Path 501" d="M76.931,130.936l-5.494-6.69,1.59,6.087Z" transform="translate(-32.656 -56.796)" fill="none" stroke="#bcbcbc" stroke-miterlimit="10" stroke-width="0.25"/>
        <path id="Path_502" data-name="Path 502" d="M108.077,191.166s-1.752-12.125-1.736-11.85,13.741,5.474,13.741,5.474Z" transform="translate(-48.611 -81.968)" fill="none" stroke="#bcbcbc" stroke-miterlimit="10" stroke-width="0.25"/>
        <path id="Path_503" data-name="Path 503" d="M124.085,177.4l-2.961-6.669,7.425,4.969Z" transform="translate(-55.369 -78.046)" fill="none" stroke="#bcbcbc" stroke-miterlimit="10" stroke-width="0.25"/>
        <path id="Path_504" data-name="Path 504" d="M129.394,214.823l-.388-6.392-6.711,6.822Z" transform="translate(-55.905 -95.279)" fill="none" stroke="#bcbcbc" stroke-miterlimit="10" stroke-width="0.25"/>
        <path id="Path_505" data-name="Path 505" d="M51.1,85.687l.619,23.642,25.3-19.106Z" transform="translate(-23.36 -39.17)" fill="none" stroke="#bcbcbc" stroke-miterlimit="10" stroke-width="0.25"/>
        <path id="Path_506" data-name="Path 506" d="M89.252,81.16l7.9-2.917L87.811,71.9Z" transform="translate(-40.141 -32.868)" fill="none" stroke="#bcbcbc" stroke-miterlimit="10" stroke-width="0.25"/>
        <path id="Path_507" data-name="Path 507" d="M18.676,143.164l2.1-9.051,4.572,4.906Z" transform="translate(-8.537 -61.307)" fill="none" stroke="#bcbcbc" stroke-miterlimit="10" stroke-width="0.25"/>
        <path id="Path_508" data-name="Path 508" d="M93.677,4.826l4-4.517.258,4.259Z" transform="translate(-42.822 -0.141)" fill="none" stroke="#bcbcbc" stroke-miterlimit="10" stroke-width="0.25"/>
        <path id="Path_509" data-name="Path 509" d="M6.3,124.823.354,120.68l4.135,7.772Z" transform="translate(-0.162 -55.166)" fill="none" stroke="#bcbcbc" stroke-miterlimit="10" stroke-width="0.25"/>
        <path id="Path_510" data-name="Path 510" d="M10.052,107.47l-.32-5.286,2.234,3.274Z" transform="translate(-4.449 -46.711)" fill="none" stroke="#bcbcbc" stroke-miterlimit="10" stroke-width="0.25"/>
        <path id="Path_511" data-name="Path 511" d="M53.065,147.505l17.487-4.681L57.42,152.767Z" transform="translate(-24.258 -65.289)" fill="none" stroke="#bcbcbc" stroke-miterlimit="10" stroke-width="0.25"/>
        <path id="Path_512" data-name="Path 512" d="M91.3,214.2l3.872-3.287.185,3.041Z" transform="translate(-41.738 -96.414)" fill="none" stroke="#bcbcbc" stroke-miterlimit="10" stroke-width="0.25"/>
        <path id="Path_513" data-name="Path 513" d="M85.474,201.185l-.351-5.786,4.626,2.435Z" transform="translate(-38.912 -89.322)" fill="none" stroke="#bcbcbc" stroke-miterlimit="10" stroke-width="0.25"/>
        <path id="Path_514" data-name="Path 514" d="M131.364,256.484l13.852-6.966,5.922,5.767Z" transform="translate(-60.05 -114.061)" fill="none" stroke="#bcbcbc" stroke-miterlimit="10" stroke-width="0.25"/>
        <path id="Path_515" data-name="Path 515" d="M15.185,220.423l4.466-2.713,1.593,2.346Z" transform="translate(-6.941 -99.521)" fill="none" stroke="#bcbcbc" stroke-miterlimit="10" stroke-width="0.25"/>
        <path id="Path_516" data-name="Path 516" d="M84.49,243.8l.985-7.26,3.057,3.415Z" transform="translate(-38.623 -108.127)" fill="none" stroke="#bcbcbc" stroke-miterlimit="10" stroke-width="0.25"/>
        <path id="Path_517" data-name="Path 517" d="M43.71,220.567l-5.209-8.7,16.511,10.462Z" transform="translate(-17.6 -96.848)" fill="none" stroke="#bcbcbc" stroke-miterlimit="10" stroke-width="0.25"/>
      </g>
    </g>
    <g id="Group_4040" data-name="Group 4040" transform="translate(-44 -312)" opacity="0.66">
      <path id="Path_562" data-name="Path 562" d="M-187.5,614.117l1.751,2.289,14.948,4.04,6.868-3.232-2.963-6.464h-6.464Z" transform="translate(445)" fill="#5271ff"/>
      <path id="Path_563" data-name="Path 563" d="M-112,622.25l4.713,6.464,1.347-4.848Z" transform="translate(410.169 -5.305)" fill="#5271ff"/>
      <path id="Path_564" data-name="Path 564" d="M-113,667.194l5.791-4.444h2.828v2.963Z" transform="translate(410.631 -23.989)" fill="#5271ff"/>
      <path id="Path_565" data-name="Path 565" d="M-124.75,704.117-111.957,699l2.828,1.751,1.077,3.367-11.581.808Z" transform="translate(416.051 -40.713)" fill="#5271ff"/>
    </g>
  </g>
</svg>
