<svg xmlns="http://www.w3.org/2000/svg" width="18.843" height="21.984" viewBox="0 0 18.843 21.984">
  <path id="_1608475_file_o_pdf_icon" data-name="1608475_file_o_pdf_icon" d="M146.009,4.662a2.854,2.854,0,0,1,.589.932,2.832,2.832,0,0,1,.245,1.08V20.806a1.173,1.173,0,0,1-1.178,1.178H129.178A1.173,1.173,0,0,1,128,20.806V1.178a1.136,1.136,0,0,1,.343-.834A1.136,1.136,0,0,1,129.178,0H140.17a2.832,2.832,0,0,1,1.08.245,2.855,2.855,0,0,1,.932.589Zm-5.447-2.993V6.281h4.613a1.34,1.34,0,0,0-.27-.5l-3.84-3.84A1.34,1.34,0,0,0,140.562,1.668Zm4.711,18.745V7.851h-5.1a1.173,1.173,0,0,1-1.178-1.178V1.57H129.57V20.414Zm-6.306-7.275a9.33,9.33,0,0,0,1.03.687,12.174,12.174,0,0,1,1.435-.086q1.8,0,2.171.6a.593.593,0,0,1,.025.638.035.035,0,0,1-.012.025l-.025.025v.012q-.074.466-.871.466a5.061,5.061,0,0,1-1.411-.245,8.945,8.945,0,0,1-1.595-.65,22.09,22.09,0,0,0-4.809,1.018q-1.877,3.214-2.969,3.214a.713.713,0,0,1-.343-.086l-.294-.147q-.012-.012-.074-.061a.507.507,0,0,1-.074-.442,2.664,2.664,0,0,1,.687-1.122,5.929,5.929,0,0,1,1.619-1.184.179.179,0,0,1,.282.074.071.071,0,0,1,.025.049q.638-1.043,1.313-2.417a18.722,18.722,0,0,0,1.276-3.214,9.916,9.916,0,0,1-.374-1.957,4.77,4.77,0,0,1,.08-1.564q.135-.491.515-.491h.27a.517.517,0,0,1,.429.184.98.98,0,0,1,.11.834.266.266,0,0,1-.049.1.318.318,0,0,1,.012.1v.368a16.066,16.066,0,0,1-.172,2.355A6.206,6.206,0,0,0,138.967,13.139ZM131.9,18.181a5.417,5.417,0,0,0,1.681-1.938,6.992,6.992,0,0,0-1.073,1.03A4.078,4.078,0,0,0,131.9,18.181Zm4.883-11.286a3.648,3.648,0,0,0-.025,1.619q.012-.086.086-.54,0-.037.086-.528a.276.276,0,0,1,.049-.1.035.035,0,0,1-.012-.025.025.025,0,0,0-.006-.018.025.025,0,0,1-.006-.018.706.706,0,0,0-.159-.442.035.035,0,0,1-.012.025ZM135.262,15a17.994,17.994,0,0,1,3.484-.994,1.854,1.854,0,0,1-.159-.117,2.192,2.192,0,0,1-.2-.166,6.5,6.5,0,0,1-1.558-2.159,16.391,16.391,0,0,1-1.018,2.417Q135.447,14.672,135.262,15Zm7.925-.2a2.936,2.936,0,0,0-1.717-.294,4.64,4.64,0,0,0,1.521.343,1.189,1.189,0,0,0,.221-.012Q143.212,14.832,143.187,14.807Z" transform="translate(-128)" fill="#fff"/>
</svg>
