<svg xmlns="http://www.w3.org/2000/svg" width="17.647" height="21.399" viewBox="0 0 17.647 21.399">
  <path id="_8675172_ic_fluent_notepad_regular_icon" data-name="8675172_ic_fluent_notepad_regular_icon" d="M5.911,23.4A2.407,2.407,0,0,1,3.5,20.992V6.012A2.406,2.406,0,0,1,5.909,3.6h.8V2.8A.8.8,0,0,1,7.4,2.007L7.511,2a.8.8,0,0,1,.795.693l.007.109v.8h3.211V2.8a.8.8,0,0,1,.693-.795L12.327,2a.8.8,0,0,1,.795.693l.007.109v.8h3.207V2.8a.8.8,0,0,1,.693-.795L17.138,2a.8.8,0,0,1,.795.693l.007.109v.8h.8a2.408,2.408,0,0,1,2.407,2.407V17.778a.806.806,0,0,1-.022.187l-.031.1-.048.1-.022.034a.733.733,0,0,1-.112.142L16.1,23.164a.792.792,0,0,1-.09.078l.09-.078a.8.8,0,0,1-.112.093l-.094.056-.125.05-.121.027-.057.006-.058,0Zm12.83-18.19H5.9a.8.8,0,0,0-.791.8v14.98a.8.8,0,0,0,.8.8h8.815V19.382a2.407,2.407,0,0,1,2.242-2.4l.165-.006h2.411V6.012A.8.8,0,0,0,18.741,5.209ZM18.409,18.58H17.133a.8.8,0,0,0-.795.693l-.007.109V20.66Zm-10.9-1.6h4.277a.8.8,0,0,1,.109,1.6l-.109.007H7.511a.8.8,0,0,1-.109-1.6l.109-.007h0Zm0-4.279h9.625a.8.8,0,0,1,.109,1.6l-.109.007H7.511A.8.8,0,0,1,7.4,12.7l.109-.007h0Zm0-4.279h9.625a.8.8,0,0,1,.109,1.6l-.109.007H7.511a.8.8,0,0,1-.109-1.6l.109-.007h0Z" transform="translate(-3.502 -2)" fill="#fff"/>
</svg>
