<svg xmlns="http://www.w3.org/2000/svg" width="22.5" height="30" viewBox="0 0 22.5 30">
  <path id="Icon_awesome-clipboard-list" data-name="Icon awesome-clipboard-list" d="M19.688,3.75H15a3.75,3.75,0,0,0-7.5,0H2.813A2.813,2.813,0,0,0,0,6.563V27.188A2.813,2.813,0,0,0,2.813,30H19.688A2.813,2.813,0,0,0,22.5,27.188V6.563A2.813,2.813,0,0,0,19.688,3.75ZM5.625,24.844a1.406,1.406,0,1,1,1.406-1.406A1.4,1.4,0,0,1,5.625,24.844Zm0-5.625a1.406,1.406,0,1,1,1.406-1.406A1.4,1.4,0,0,1,5.625,19.219Zm0-5.625a1.406,1.406,0,1,1,1.406-1.406A1.4,1.4,0,0,1,5.625,13.594ZM11.25,2.344A1.406,1.406,0,1,1,9.844,3.75,1.4,1.4,0,0,1,11.25,2.344Zm7.5,21.563a.47.47,0,0,1-.469.469H9.844a.47.47,0,0,1-.469-.469v-.937a.47.47,0,0,1,.469-.469h8.438a.47.47,0,0,1,.469.469Zm0-5.625a.47.47,0,0,1-.469.469H9.844a.47.47,0,0,1-.469-.469v-.937a.47.47,0,0,1,.469-.469h8.438a.47.47,0,0,1,.469.469Zm0-5.625a.47.47,0,0,1-.469.469H9.844a.47.47,0,0,1-.469-.469v-.937a.47.47,0,0,1,.469-.469h8.438a.47.47,0,0,1,.469.469Z" fill="#4b61ff"/>
</svg>
