<svg xmlns="http://www.w3.org/2000/svg" width="22.059" height="21.857" viewBox="0 0 22.059 21.857">
  <g id="_1370037_settings_spanner_tool_wrench_icon" data-name="1370037_settings_spanner_tool_wrench_icon" transform="translate(0.25 0.25)">
    <g id="Group_235" data-name="Group 235">
      <path id="Path_290" data-name="Path 290" d="M20.174,15.257,14.837,9.92a.528.528,0,1,0-.747.747L19.427,16A2.491,2.491,0,1,1,15.9,19.527L9.233,12.909a6.834,6.834,0,0,0,3.843-4.377,6.412,6.412,0,0,0,.213-2.242,6.861,6.861,0,0,0-6.3-6.3,7.277,7.277,0,0,0-3.2.587.842.842,0,0,0-.267.427.358.358,0,0,0,.16.427L7.418,5.223a1.611,1.611,0,0,1,0,2.3,1.715,1.715,0,0,1-2.3,0L1.387,3.729a.544.544,0,0,0-.48-.107.663.663,0,0,0-.427.32A6.164,6.164,0,0,0-.107,6.878a6.736,6.736,0,0,0,5.6,6.458,7.963,7.963,0,0,0,1.121.107,7.114,7.114,0,0,0,1.494-.16l7.045,6.992a3.474,3.474,0,0,0,2.509,1.067,3.386,3.386,0,0,0,2.508-1.067A3.543,3.543,0,0,0,20.174,15.257Zm-12.116-3.1a5.2,5.2,0,0,1-2.4.107A5.644,5.644,0,0,1,.96,6.878a6.63,6.63,0,0,1,.213-1.761l3.2,3.149a2.62,2.62,0,0,0,1.921.8,2.62,2.62,0,0,0,1.921-.8,2.706,2.706,0,0,0,0-3.843l-3.2-3.149A7.578,7.578,0,0,1,6.938,1.06a5.682,5.682,0,0,1,5.284,5.284,4.4,4.4,0,0,1-.213,1.868,5.717,5.717,0,0,1-3.9,3.9C8.112,12.162,8.112,12.162,8.059,12.162Z" transform="translate(0.115 0.015)" fill="#fff" stroke="#fff" stroke-width="0.5"/>
    </g>
    <g id="Group_236" data-name="Group 236" transform="translate(15.326 15.326)">
      <path id="Path_291" data-name="Path 291" d="M30.2,31.9a1.6,1.6,0,1,1,1.6-1.6A1.606,1.606,0,0,1,30.2,31.9Zm0-2.135a.534.534,0,1,0,.534.534A.5.5,0,0,0,30.2,29.767Z" transform="translate(-28.6 -28.7)" fill="#fff" stroke="#fff" stroke-width="0.5"/>
    </g>
  </g>
</svg>
