<svg xmlns="http://www.w3.org/2000/svg" width="26.132" height="19.781" viewBox="0 0 26.132 19.781">
  <g id="_6588990_construction_drill_perforator_tool_icon" data-name="6588990_construction_drill_perforator_tool_icon" transform="translate(1 1)">
    <path id="Path_612" data-name="Path 612" d="M19.892,14.113H6.556A3.567,3.567,0,0,1,3,10.556H3A3.567,3.567,0,0,1,6.556,7H19.892Z" transform="translate(-3 -7)" fill="none" stroke="#fff" stroke-linecap="round" stroke-linejoin="round" stroke-miterlimit="10" stroke-width="2"/>
    <line id="Line_143" data-name="Line 143" x1="0.928" y2="1.856" transform="translate(3.713 2.784)" fill="none" stroke="#fff" stroke-linecap="round" stroke-linejoin="round" stroke-miterlimit="10" stroke-width="2"/>
    <line id="Line_144" data-name="Line 144" y2="1.856" transform="translate(7.425 2.784)" fill="none" stroke="#fff" stroke-linecap="round" stroke-linejoin="round" stroke-miterlimit="10" stroke-width="2"/>
    <path id="Path_613" data-name="Path 613" d="M24.045,13.334H22V8h2.045a1.5,1.5,0,0,1,1.511,1.511v2.223A1.577,1.577,0,0,1,24.045,13.334Z" transform="translate(-5.108 -7.111)" fill="none" stroke="#fff" stroke-linecap="round" stroke-linejoin="round" stroke-miterlimit="10" stroke-width="2"/>
    <line id="Line_145" data-name="Line 145" x2="3.713" transform="translate(20.419 3.713)" fill="none" stroke="#fff" stroke-linecap="round" stroke-linejoin="round" stroke-miterlimit="10" stroke-width="2"/>
    <line id="Line_146" data-name="Line 146" x1="0.928" transform="translate(16.707 3.713)" fill="none" stroke="#fff" stroke-linecap="round" stroke-linejoin="round" stroke-miterlimit="10" stroke-width="2"/>
    <path id="Path_614" data-name="Path 614" d="M9.334,23H4l2.667-8H12Z" transform="translate(-3.111 -7.887)" fill="none" stroke="#fff" stroke-linecap="round" stroke-linejoin="round" stroke-miterlimit="10" stroke-width="2"/>
    <path id="Path_615" data-name="Path 615" d="M11,26.667H3V25.6A1.594,1.594,0,0,1,4.6,24H8.246a2.59,2.59,0,0,1,2.489,1.778Z" transform="translate(-3 -8.886)" fill="none" stroke="#fff" stroke-linecap="round" stroke-linejoin="round" stroke-miterlimit="10" stroke-width="2"/>
    <path id="Path_616" data-name="Path 616" d="M17.334,15l-.356,1.511a2.749,2.749,0,0,1-2.667,2.045H12" transform="translate(-3.998 -7.887)" fill="none" stroke="#fff" stroke-linecap="round" stroke-linejoin="round" stroke-miterlimit="10" stroke-width="2"/>
  </g>
</svg>
