<svg xmlns="http://www.w3.org/2000/svg" width="52.656" height="39.857" viewBox="0 0 52.656 39.857">
  <g id="_6588990_construction_drill_perforator_tool_icon_1_" data-name="6588990_construction_drill_perforator_tool_icon (1)" transform="translate(-1.5 -5.5)">
    <path id="Path_584" data-name="Path 584" d="M38.014,21.743H10.371A7.393,7.393,0,0,1,3,14.371H3A7.393,7.393,0,0,1,10.371,7H38.014Z" transform="translate(0)" fill="none" stroke="#fff" stroke-linecap="round" stroke-linejoin="round" stroke-miterlimit="10" stroke-width="3"/>
    <line id="Line_147" data-name="Line 147" x1="1.883" y2="3.765" transform="translate(10.295 12.413)" fill="none" stroke="#fff" stroke-linecap="round" stroke-linejoin="round" stroke-miterlimit="10" stroke-width="3"/>
    <line id="Line_148" data-name="Line 148" x1="1.647" y2="3.765" transform="translate(17.826 12.413)" fill="none" stroke="#fff" stroke-linecap="round" stroke-linejoin="round" stroke-miterlimit="10" stroke-width="3"/>
    <path id="Path_585" data-name="Path 585" d="M26.239,19.057H22V8h4.239a3.106,3.106,0,0,1,3.133,3.133V15.74A3.269,3.269,0,0,1,26.239,19.057Z" transform="translate(16.014 0.843)" fill="none" stroke="#fff" stroke-linecap="round" stroke-linejoin="round" stroke-miterlimit="10" stroke-width="3"/>
    <line id="Line_149" data-name="Line 149" x2="7.295" transform="translate(45.361 14.295)" fill="none" stroke="#fff" stroke-linecap="round" stroke-linejoin="round" stroke-miterlimit="10" stroke-width="3"/>
    <line id="Line_150" data-name="Line 150" x1="1.883" transform="translate(38.065 14.295)" fill="none" stroke="#fff" stroke-linecap="round" stroke-linejoin="round" stroke-miterlimit="10" stroke-width="3"/>
    <path id="Path_586" data-name="Path 586" d="M15.057,31.586H4L9.529,15H20.586Z" transform="translate(0.843 6.743)" fill="none" stroke="#fff" stroke-linecap="round" stroke-linejoin="round" stroke-miterlimit="10" stroke-width="3"/>
    <path id="Path_587" data-name="Path 587" d="M19.586,29.529H3V27.317A3.3,3.3,0,0,1,6.317,24h7.556a5.368,5.368,0,0,1,5.16,3.686Z" transform="translate(0 14.328)" fill="none" stroke="#fff" stroke-linecap="round" stroke-linejoin="round" stroke-miterlimit="10" stroke-width="3"/>
    <path id="Path_588" data-name="Path 588" d="M23.057,15l-.737,3.133a5.7,5.7,0,0,1-5.529,4.239H12" transform="translate(7.586 6.743)" fill="none" stroke="#fff" stroke-linecap="round" stroke-linejoin="round" stroke-miterlimit="10" stroke-width="3"/>
  </g>
</svg>
